<?xml version="1.0" standalone="no"?>
<!DOCTYPE svg PUBLIC "-//W3C//DTD SVG 20010904//EN"
 "http://www.w3.org/TR/2001/REC-SVG-20010904/DTD/svg10.dtd">
<svg version="1.0" xmlns="http://www.w3.org/2000/svg"
 width="550.000000pt" height="550.000000pt" viewBox="0 0 550.000000 550.000000"
 preserveAspectRatio="xMidYMid meet">
<metadata>
Created by potrace 1.11, written by Peter Selinger 2001-2013
</metadata>
<g transform="translate(0.000000,550.000000) scale(0.100000,-0.100000)"
fill="#000000" stroke="none">
<path d="M2114 3723 c3 -6 3 -18 0 -27 -5 -14 -9 -14 -22 -4 -12 10 -14 10 -8
0 5 -8 -2 -15 -18 -22 -14 -5 -26 -12 -26 -15 0 -4 5 -3 12 1 7 5 8 3 4 -5 -5
-7 -14 -10 -22 -7 -7 3 -16 1 -19 -4 -4 -6 -14 -10 -25 -10 -10 0 -21 -7 -24
-16 -3 -8 -10 -12 -16 -9 -5 3 -7 0 -4 -8 3 -8 0 -18 -7 -23 -8 -5 -10 -3 -4
6 5 9 4 11 -4 6 -6 -4 -9 -12 -5 -17 11 -18 15 -61 5 -55 -5 4 -13 2 -16 -4
-4 -6 -3 -10 2 -9 22 4 24 -3 7 -23 -19 -22 -19 -22 0 -8 18 14 19 13 13 -3
-4 -10 -7 -21 -7 -23 0 -2 -8 -4 -17 -5 -15 0 -15 -2 2 -9 18 -7 18 -9 3 -15
-9 -4 -14 -13 -11 -21 3 -8 0 -14 -6 -14 -6 0 -11 -7 -11 -15 0 -8 -5 -15 -11
-15 -5 0 -8 -4 -5 -9 3 -5 0 -11 -8 -14 -9 -4 -12 -14 -9 -25 2 -11 -1 -23 -8
-27 -8 -6 -10 -4 -4 5 5 8 4 11 -3 7 -5 -4 -9 -18 -8 -32 2 -13 -1 -22 -5 -19
-5 3 -9 0 -9 -6 0 -6 -5 -8 -12 -4 -9 5 -9 2 1 -9 9 -11 10 -17 2 -17 -6 0
-10 -6 -9 -12 2 -7 -3 -12 -10 -10 -8 1 -11 -2 -8 -7 9 -14 -12 -63 -23 -56
-6 3 -8 -4 -6 -15 2 -11 0 -20 -6 -20 -5 0 -9 -8 -9 -19 0 -10 -7 -24 -15 -31
-8 -7 -15 -21 -15 -32 0 -11 -4 -16 -11 -12 -8 4 -9 -1 -4 -16 5 -14 3 -20 -3
-16 -6 3 -13 -7 -17 -24 -4 -18 -11 -27 -18 -23 -6 4 -8 0 -4 -10 3 -10 2 -17
-4 -17 -6 0 -7 -4 -4 -10 3 -5 1 -10 -5 -10 -6 0 -8 -5 -5 -10 3 -6 -1 -13 -9
-16 -9 -3 -14 -10 -11 -14 7 -12 -30 -91 -39 -83 -4 4 -4 0 0 -10 4 -12 1 -17
-12 -17 -16 0 -17 -2 -4 -10 11 -7 11 -10 2 -10 -7 0 -11 -4 -8 -9 9 -15 -5
-42 -18 -34 -6 4 -4 -2 4 -12 13 -17 13 -18 -1 -13 -9 4 -16 1 -16 -8 0 -7 4
-11 9 -8 4 3 5 -2 2 -10 -3 -9 -11 -13 -18 -9 -7 4 -7 1 1 -7 10 -11 9 -16 -5
-27 -9 -8 -11 -12 -4 -8 6 3 12 2 12 -3 0 -6 -6 -12 -14 -15 -9 -4 -12 -14 -9
-25 2 -11 -1 -23 -8 -27 -8 -6 -10 -4 -4 5 5 8 4 11 -3 6 -6 -3 -9 -15 -7 -26
2 -11 0 -20 -5 -20 -5 0 -7 -7 -4 -15 4 -8 1 -15 -6 -15 -6 0 -8 -4 -5 -10 3
-5 1 -10 -5 -10 -6 0 -8 -4 -5 -10 3 -5 2 -10 -3 -10 -5 0 -9 -7 -10 -15 -1
-8 -3 -22 -4 -30 -1 -8 -6 -15 -11 -15 -6 0 -7 -3 -4 -7 4 -3 -1 -12 -11 -20
-10 -9 -11 -11 -2 -7 13 7 13 5 1 -9 -7 -9 -10 -17 -5 -17 5 0 0 -7 -10 -15
-11 -8 -16 -15 -12 -15 5 0 3 -7 -4 -15 -7 -8 -9 -15 -4 -15 5 0 0 -7 -10 -15
-11 -8 -17 -15 -13 -15 4 0 3 -9 -3 -20 -6 -11 -7 -20 -2 -20 9 0 7 -58 -2
-67 -3 -4 -1 -12 5 -19 7 -8 7 -14 -1 -19 -5 -3 -10 -12 -10 -18 0 -7 4 -6 11
3 9 12 10 12 5 -3 -3 -10 -6 -23 -6 -28 0 -4 -8 -6 -17 -3 -17 5 -17 5 -1 -5
9 -7 15 -20 13 -31 -2 -11 0 -18 4 -15 5 2 11 -9 13 -26 3 -20 0 -33 -9 -36
-7 -3 -11 -9 -8 -13 3 -4 -2 -11 -11 -14 -8 -3 -12 -10 -9 -16 3 -5 0 -10 -7
-10 -9 0 -9 -3 2 -10 8 -5 11 -10 6 -10 -5 0 1 -11 14 -25 30 -32 50 -32 86 2
16 15 33 26 37 25 5 -1 6 2 3 7 -7 10 19 64 39 81 7 6 11 19 8 27 -4 11 -2 14
5 9 7 -4 12 -1 12 8 0 9 4 16 10 16 5 0 6 7 3 17 -4 11 -3 14 5 9 8 -4 12 0
12 11 1 21 24 55 33 47 3 -3 4 6 3 20 -3 21 1 26 18 26 15 0 17 3 7 9 -10 7
-10 12 5 30 11 12 19 25 20 29 2 20 17 41 25 36 5 -3 6 3 2 12 -4 12 -3 15 5
10 8 -5 10 -1 5 10 -5 13 -3 15 7 9 9 -5 11 -4 6 3 -8 14 18 55 28 45 4 -4 4
0 0 10 -3 10 -1 17 6 17 6 0 8 4 5 10 -3 5 5 21 18 34 14 14 20 27 15 28 -7 3
-5 10 4 18 7 8 24 35 37 60 12 24 30 50 39 58 10 7 11 11 4 7 -10 -5 -10 -1
-1 19 7 14 16 23 20 20 5 -3 9 6 9 21 0 14 7 28 15 31 8 4 12 10 9 15 -3 5 0
9 6 9 6 0 8 5 5 10 -3 6 -1 10 4 10 6 0 11 7 11 16 0 9 5 12 12 8 6 -4 8 -3 4
4 -7 12 28 79 53 100 9 7 10 11 4 7 -7 -3 -13 -1 -13 5 0 6 7 13 15 16 8 4 12
11 9 16 -4 6 3 5 16 -2 12 -6 19 -18 16 -25 -2 -7 2 -16 11 -19 12 -5 13 -9 3
-21 -11 -13 -10 -14 3 -9 12 4 15 1 12 -15 -2 -12 0 -21 4 -21 10 0 26 -67 22
-89 -1 -8 2 -10 10 -5 9 5 10 2 6 -9 -4 -10 -1 -17 6 -17 8 0 6 -4 -3 -10 -13
-8 -12 -10 3 -10 20 0 22 -11 5 -29 -11 -10 -10 -12 2 -9 9 2 14 -4 14 -14 -1
-10 2 -18 7 -18 5 0 5 -7 2 -17 -5 -12 -3 -14 7 -8 9 5 11 4 6 -4 -4 -6 -2
-19 6 -28 11 -14 11 -16 -2 -8 -8 5 -5 -4 7 -19 18 -23 20 -32 12 -48 -7 -13
-7 -18 -1 -14 12 7 26 -29 17 -44 -4 -6 -1 -9 7 -8 8 2 12 -5 11 -17 -1 -11 0
-15 3 -8 8 19 54 -6 54 -29 0 -11 5 -16 10 -13 6 3 10 1 10 -5 0 -14 21 -34
40 -38 8 -2 17 -8 18 -13 2 -5 7 -7 12 -4 4 2 16 -5 26 -17 11 -12 13 -18 7
-14 -7 4 -13 3 -13 -2 0 -6 7 -13 16 -16 11 -4 14 -13 11 -27 -3 -12 -3 -18 0
-15 3 3 18 -3 33 -14 20 -14 30 -16 38 -8 9 9 12 9 12 -2 0 -9 5 -8 18 5 21
23 27 65 9 65 -8 0 -7 4 3 10 12 8 12 10 1 10 -8 0 -11 3 -8 6 3 4 2 15 -4 25
-7 14 -6 19 3 19 11 0 11 2 0 8 -8 5 -10 16 -6 27 5 13 4 16 -5 11 -8 -5 -10
-1 -7 16 5 31 57 141 71 150 5 4 7 8 2 8 -4 0 0 15 10 33 9 17 18 34 18 37 6
21 18 39 25 35 5 -3 6 3 3 14 -3 10 1 22 8 26 8 6 10 4 4 -5 -5 -9 -4 -11 4
-6 6 4 9 12 5 17 -3 6 2 17 12 25 11 9 13 13 7 9 -19 -9 -16 6 5 22 10 9 11
11 2 7 -11 -6 -10 -2 3 13 9 11 14 23 10 28 -5 4 0 5 9 2 12 -4 15 -2 11 9 -7
20 17 65 30 57 6 -4 7 -1 3 6 -5 7 -2 20 6 29 21 28 40 65 29 57 -6 -3 -11 -1
-11 4 0 6 3 11 8 11 4 0 16 12 26 27 12 16 14 23 5 18 -12 -8 -12 -6 0 8 7 9
18 14 25 10 8 -4 7 -2 -1 7 -12 13 -6 43 7 35 5 -3 11 -1 15 5 3 5 1 10 -6 10
-7 0 -2 9 11 20 13 11 18 20 12 20 -16 0 -15 13 4 36 14 18 15 18 4 -6 -10
-24 -10 -24 4 -6 11 14 13 23 5 32 -7 8 -6 16 3 25 8 8 13 24 12 37 -1 12 3
25 9 29 6 4 7 1 2 -8 -8 -12 -6 -12 8 0 18 14 24 26 8 17 -12 -8 -21 85 -10
106 6 10 5 19 -1 23 -6 4 -7 11 -4 17 4 6 2 8 -4 4 -6 -3 -17 1 -25 9 -19 18
-31 20 -21 3 5 -10 4 -10 -6 -1 -11 10 -11 15 1 30 11 14 9 14 -10 -2 l-24
-20 7 30 c7 29 7 29 -8 10 -15 -19 -16 -19 -9 -1 5 15 3 17 -7 11 -9 -6 -12
-4 -8 7 4 8 0 15 -8 16 -8 1 -21 3 -29 4 -8 1 -15 5 -15 10 0 5 -5 6 -11 3
-19 -12 -59 -13 -52 -1 3 6 -5 0 -17 -13 -23 -23 -24 -23 -32 -5 -6 15 -7 13
-5 -8 3 -19 0 -28 -10 -28 -8 0 -11 -5 -7 -12 5 -7 2 -9 -8 -5 -11 4 -14 1
-11 -12 2 -10 -4 -24 -13 -32 -15 -12 -16 -12 -9 0 5 10 4 12 -4 7 -9 -6 -9
-11 -1 -21 8 -10 7 -15 -4 -22 -8 -4 -15 -11 -16 -15 -8 -35 -14 -48 -22 -48
-5 0 -5 -6 0 -16 11 -19 -36 -123 -48 -105 -5 9 -9 8 -13 -4 -4 -9 -3 -14 3
-10 16 10 5 -34 -13 -56 -9 -10 -17 -25 -17 -32 0 -7 -5 -18 -12 -25 -7 -7 -8
-12 -3 -12 5 0 0 -7 -11 -16 -10 -8 -13 -12 -6 -9 11 6 12 3 3 -12 -6 -11 -7
-23 -3 -27 3 -4 -2 -4 -12 0 -14 5 -15 9 -4 15 10 7 11 9 0 9 -7 0 -10 5 -7
10 3 6 2 10 -2 10 -5 0 -8 12 -7 28 0 15 -4 30 -10 34 -8 5 -7 14 2 29 8 11 9
18 3 15 -5 -4 -12 -2 -16 4 -3 5 2 10 12 10 17 1 17 1 0 11 -9 6 -15 15 -12
20 4 5 11 6 17 3 7 -4 8 -2 4 4 -4 6 -14 8 -22 5 -14 -5 -15 -3 -4 17 8 15 8
20 1 16 -15 -10 -14 7 2 23 10 11 10 13 0 7 -13 -7 -18 9 -15 47 1 9 -4 17
-11 17 -8 0 -7 4 3 10 8 5 10 10 4 10 -12 0 -12 59 0 79 6 9 5 12 -1 8 -13 -8
-13 25 1 42 9 12 8 14 -4 9 -11 -4 -15 1 -15 16 1 12 5 28 9 35 5 7 3 18 -3
24 -9 9 -11 7 -6 -8 5 -16 5 -17 -3 -5 -8 10 -8 18 0 27 7 9 7 13 -1 13 -6 0
-9 10 -7 23 2 12 -1 28 -6 35 -13 15 4 16 19 1 8 -8 13 -7 18 2 5 7 4 10 -2 6
-13 -8 -46 27 -36 38 5 4 -4 6 -19 3 -24 -4 -26 -2 -21 21 4 25 4 25 -11 6 -9
-11 -16 -18 -16 -15 -1 3 -3 14 -5 24 -2 10 -8 22 -14 25 -5 4 -15 19 -20 34
-8 21 -8 26 1 21 7 -4 8 -3 4 5 -4 7 -16 11 -26 9 -11 -2 -26 6 -35 17 -9 11
-14 15 -11 8z"/>
<path d="M1910 3661 c0 -6 4 -13 10 -16 6 -3 7 1 4 9 -7 18 -14 21 -14 7z"/>
<path d="M1995 3661 c-3 -5 -2 -12 3 -15 5 -3 9 1 9 9 0 17 -3 19 -12 6z"/>
<path d="M2190 3661 c0 -6 4 -12 8 -15 5 -3 9 1 9 9 0 8 -4 15 -9 15 -4 0 -8
-4 -8 -9z"/>
<path d="M2335 3601 c-3 -5 -2 -12 3 -15 5 -3 9 1 9 9 0 17 -3 19 -12 6z"/>
<path d="M2686 3578 c3 -5 10 -6 15 -3 13 9 11 12 -6 12 -8 0 -12 -4 -9 -9z"/>
<path d="M2330 3560 c0 -5 5 -10 11 -10 5 0 7 5 4 10 -3 6 -8 10 -11 10 -2 0
-4 -4 -4 -10z"/>
<path d="M2347 3499 c7 -7 15 -10 18 -7 3 3 -2 9 -12 12 -14 6 -15 5 -6 -5z"/>
<path d="M2307 3486 c-4 -10 -1 -13 8 -9 8 3 12 9 9 14 -7 12 -11 11 -17 -5z"/>
<path d="M4387 3459 c7 -7 15 -10 18 -7 3 3 -2 9 -12 12 -14 6 -15 5 -6 -5z"/>
<path d="M2674 3442 c4 -3 14 -7 22 -8 9 -1 13 0 10 4 -4 3 -14 7 -22 8 -9 1
-13 0 -10 -4z"/>
<path d="M2773 3435 c0 -8 4 -12 9 -9 5 3 6 10 3 15 -9 13 -12 11 -12 -6z"/>
<path d="M2347 3419 c7 -7 15 -10 18 -7 3 3 -2 9 -12 12 -14 6 -15 5 -6 -5z"/>
<path d="M2854 3416 c1 -8 5 -18 8 -22 4 -3 5 1 4 10 -1 8 -5 18 -8 22 -4 3
-5 -1 -4 -10z"/>
<path d="M2815 3400 c-3 -5 -1 -10 4 -10 6 0 11 5 11 10 0 6 -2 10 -4 10 -3 0
-8 -4 -11 -10z"/>
<path d="M4456 3402 c-3 -5 1 -9 9 -9 8 0 12 4 9 9 -3 4 -7 8 -9 8 -2 0 -6 -4
-9 -8z"/>
<path d="M1390 3381 c0 -6 4 -13 10 -16 6 -3 7 1 4 9 -7 18 -14 21 -14 7z"/>
<path d="M2525 3380 c-3 -6 1 -7 9 -4 18 7 21 14 7 14 -6 0 -13 -4 -16 -10z"/>
<path d="M4540 3386 c0 -2 8 -10 18 -17 15 -13 16 -12 3 4 -13 16 -21 21 -21
13z"/>
<path d="M4517 3364 c-3 -3 -3 -12 -1 -18 3 -7 -3 -19 -12 -27 -16 -12 -17
-12 -11 4 4 10 3 16 -1 14 -32 -17 -74 -28 -67 -18 2 4 -2 8 -9 8 -8 0 -12 -6
-9 -13 3 -9 -2 -11 -16 -7 -12 3 -29 -1 -38 -8 -14 -12 -16 -12 -9 1 5 9 2 8
-7 -2 -11 -14 -16 -15 -27 -5 -8 8 -11 8 -7 1 4 -7 0 -15 -9 -18 -10 -4 -13
-2 -8 7 4 6 -3 2 -15 -10 -26 -28 -32 -29 -25 -5 3 9 -2 4 -11 -11 -14 -24
-19 -27 -33 -15 -10 8 -13 9 -9 1 8 -12 -48 -60 -64 -55 -5 1 -9 -5 -9 -15 0
-9 -3 -13 -6 -10 -4 4 -22 -14 -41 -38 -19 -25 -38 -45 -44 -45 -6 0 -7 -5 -3
-11 4 -8 -1 -9 -17 -4 -17 4 -20 3 -10 -3 11 -8 8 -18 -14 -56 -16 -28 -31
-43 -38 -39 -8 4 -7 1 1 -9 10 -13 10 -17 -3 -22 -9 -3 -14 -10 -11 -15 9 -14
-5 -42 -16 -35 -6 4 -8 -2 -3 -15 4 -12 2 -21 -4 -21 -6 0 -10 -3 -10 -7 3
-20 -2 -34 -11 -28 -6 3 -7 -1 -4 -9 4 -9 1 -16 -6 -16 -10 0 -10 -3 -1 -14 8
-9 8 -15 2 -18 -6 -1 -12 -15 -13 -30 -1 -15 -6 -24 -11 -21 -5 3 -6 -4 -2
-17 4 -12 3 -20 -1 -17 -5 3 -8 -15 -7 -39 1 -28 -2 -44 -10 -44 -7 0 -6 -4 3
-11 11 -8 12 -12 3 -16 -10 -3 -10 -8 1 -19 8 -7 13 -25 12 -39 -2 -13 1 -22
5 -19 5 3 9 -7 9 -21 0 -15 4 -24 10 -20 6 4 10 -7 10 -24 0 -23 5 -31 18 -31
14 0 15 -2 2 -10 -13 -8 -12 -10 3 -10 15 0 22 -18 18 -43 -1 -5 3 -6 9 -2 9
5 15 -15 11 -38 -1 -5 3 -5 9 -2 14 8 41 -26 33 -40 -4 -5 -3 -7 1 -3 8 7 61
-40 61 -53 0 -4 4 -11 9 -16 5 -5 6 -3 2 5 -4 6 -3 12 3 12 6 0 15 -9 21 -20
6 -11 15 -18 21 -15 5 4 9 -2 9 -12 0 -15 2 -16 10 -3 9 13 14 7 11 -12 0 -4
6 -5 14 -2 8 4 15 1 15 -6 0 -6 4 -9 9 -5 6 3 14 -3 20 -12 8 -14 10 -15 11
-3 0 12 2 12 9 2 4 -8 11 -13 15 -13 22 3 36 0 32 -7 -2 -4 11 -6 31 -4 25 3
34 1 29 -7 -5 -7 -1 -9 8 -5 10 4 16 1 16 -7 0 -11 3 -11 10 1 8 12 10 12 10
1 0 -8 7 -11 20 -8 11 3 20 0 20 -6 0 -7 5 -5 10 3 5 8 10 10 10 4 0 -6 20 -9
50 -8 27 2 52 -1 55 -7 4 -5 16 -2 30 7 16 10 25 12 30 4 3 -6 12 -7 18 -3 7
4 21 8 32 8 11 0 26 4 33 8 6 5 17 5 22 2 6 -3 10 -1 10 6 0 7 3 9 7 6 3 -4
13 -1 21 6 13 10 14 9 7 -3 -7 -12 -6 -13 7 -3 8 7 18 9 22 5 4 -4 6 -2 4 5
-2 6 1 11 5 12 4 0 15 7 23 16 9 8 21 15 29 15 7 0 15 7 19 15 3 8 13 15 21
15 10 0 13 5 9 12 -5 8 -2 9 10 5 14 -5 17 -3 12 8 -3 9 0 15 9 15 8 0 15 6
15 14 0 8 9 18 20 21 11 4 18 11 15 16 -4 5 -1 9 5 9 6 0 9 4 5 10 -3 5 3 18
15 30 11 11 20 27 20 35 0 8 5 15 12 15 6 0 8 3 5 7 -4 3 1 12 11 19 14 11 14
13 2 14 -12 0 -10 4 4 15 11 8 17 15 13 15 -4 0 -1 10 8 23 8 13 13 26 10 29
-3 3 1 11 9 17 8 7 12 19 9 28 -3 8 0 19 8 24 9 5 10 9 2 9 -12 0 -2 41 19 84
7 14 6 16 -4 10 -10 -6 -10 -4 1 9 7 9 9 17 4 17 -5 0 -10 10 -10 22 -1 13 -9
28 -17 34 -12 8 -13 13 -3 24 9 10 9 11 -1 6 -13 -8 -34 32 -24 48 3 5 0 6 -6
2 -7 -4 -12 -1 -12 8 0 9 -6 16 -12 16 -10 0 -10 2 0 9 11 6 10 10 -4 15 -16
6 -16 8 -4 16 11 7 11 10 2 10 -7 0 -17 11 -24 25 -6 13 -15 22 -19 19 -5 -2
-18 5 -30 17 -20 20 -20 23 -5 31 9 5 14 13 11 19 -4 5 -1 9 6 9 8 0 8 4 -1
15 -7 8 -8 15 -3 15 5 0 9 9 9 20 0 11 -4 20 -9 20 -4 0 -5 5 -2 10 3 6 2 10
-3 10 -6 0 -12 7 -15 14 -4 11 -1 13 11 9 11 -3 9 1 -5 11 -13 10 -23 24 -23
32 0 8 -4 14 -10 14 -5 0 -10 7 -10 16 0 8 -4 12 -10 9 -5 -3 -10 1 -10 10 0
9 -4 13 -10 10 -5 -3 -10 0 -10 9 0 8 6 17 13 20 6 3 3 4 -9 1 -11 -3 -29 2
-40 11 -10 8 -13 12 -5 8 10 -5 12 -3 7 5 -6 9 -11 9 -21 1 -10 -8 -15 -7 -22
4 -4 8 -22 17 -38 20 -17 3 -43 10 -60 14 -16 5 -47 8 -67 8 -33 -1 -37 1 -33
19 3 11 2 14 -1 8 -3 -7 -10 -13 -15 -13 -6 0 -8 4 -5 8 3 5 -2 9 -10 9 -10 0
-11 -4 -4 -11 15 -15 12 -30 -3 -17 -10 8 -17 7 -25 -1 -9 -9 -11 -4 -7 20 4
33 3 36 -8 26z m147 -387 c-6 -9 -4 -9 8 1 14 11 17 10 24 -10 4 -13 8 -25 9
-28 0 -3 4 -11 8 -17 6 -9 2 -13 -10 -13 -15 0 -14 -2 5 -16 19 -13 21 -19 11
-30 -10 -12 -10 -15 1 -12 8 2 15 -1 15 -7 2 -12 23 -63 32 -78 3 -6 1 -7 -5
-3 -7 4 -12 2 -12 -3 0 -6 5 -11 10 -11 14 0 12 -27 -2 -33 -8 -3 -6 -6 4 -6
11 -1 15 -6 12 -16 -4 -8 -11 -12 -18 -8 -6 4 -5 -1 3 -10 7 -9 9 -17 4 -17
-5 0 -10 -14 -11 -32 -2 -18 -6 -35 -10 -38 -4 -3 -8 -12 -10 -20 -6 -32 -34
-80 -42 -75 -6 3 -7 0 -5 -8 6 -14 -54 -84 -76 -89 -8 -2 -20 -10 -27 -18 -8
-8 -11 -10 -8 -3 4 7 -6 5 -26 -5 -37 -18 -94 -28 -68 -12 20 13 3 13 -21 0
-13 -7 -19 -7 -19 0 0 5 -7 10 -15 10 -8 0 -15 5 -15 11 0 5 -5 7 -12 3 -7 -5
-9 -2 -5 9 4 11 2 14 -8 11 -19 -8 -89 61 -80 77 5 7 4 10 -2 6 -6 -4 -17 1
-24 10 -12 14 -12 16 1 8 13 -8 13 -6 2 7 -7 9 -14 30 -14 47 -1 17 -6 31 -12
31 -7 0 -7 3 -1 8 6 4 11 20 12 36 1 16 8 33 15 38 10 6 10 8 1 8 -9 0 -8 9 4
35 9 19 21 31 26 28 6 -4 7 -1 3 6 -5 7 0 19 10 27 11 9 13 12 5 8 -16 -8 -13
-2 31 64 16 23 34 40 39 36 5 -3 9 -2 8 3 -3 20 3 30 32 47 18 11 29 13 24 6
-4 -7 6 -2 23 10 25 19 34 21 46 11 11 -10 17 -8 28 6 7 10 26 25 41 33 25 12
29 12 37 0 8 -12 10 -11 10 5 1 18 1 19 11 2 5 -9 7 -23 3 -30z m-104 -1 c0
-3 -4 -8 -10 -11 -5 -3 -10 -1 -10 4 0 6 5 11 10 11 6 0 10 -2 10 -4z"/>
<path d="M4500 2946 c0 -2 8 -10 18 -17 15 -13 16 -12 3 4 -13 16 -21 21 -21
13z"/>
<path d="M2534 3336 c1 -8 5 -18 8 -22 4 -3 5 1 4 10 -1 8 -5 18 -8 22 -4 3
-5 -1 -4 -10z"/>
<path d="M2910 3346 c0 -2 7 -7 16 -10 8 -3 12 -2 9 4 -6 10 -25 14 -25 6z"/>
<path d="M3630 3341 c0 -6 4 -13 10 -16 6 -3 7 1 4 9 -7 18 -14 21 -14 7z"/>
<path d="M4615 3341 c-3 -5 -2 -12 3 -15 5 -3 9 1 9 9 0 17 -3 19 -12 6z"/>
<path d="M2320 3326 c0 -2 7 -7 16 -10 8 -3 12 -2 9 4 -6 10 -25 14 -25 6z"/>
<path d="M2890 3320 c-9 -6 -10 -10 -3 -10 6 0 15 5 18 10 8 12 4 12 -15 0z"/>
<path d="M4707 3319 c7 -7 15 -10 18 -7 3 3 -2 9 -12 12 -14 6 -15 5 -6 -5z"/>
<path d="M1420 3306 c0 -2 8 -10 18 -17 15 -13 16 -12 3 4 -13 16 -21 21 -21
13z"/>
<path d="M1259 3288 c-5 -18 -6 -38 -1 -34 7 8 12 36 6 36 -2 0 -4 -1 -5 -2z"/>
<path d="M1294 3276 c1 -8 5 -18 8 -22 4 -3 5 1 4 10 -1 8 -5 18 -8 22 -4 3
-5 -1 -4 -10z"/>
<path d="M1326 3278 c3 -5 10 -6 15 -3 13 9 11 12 -6 12 -8 0 -12 -4 -9 -9z"/>
<path d="M3670 3286 c0 -2 7 -7 16 -10 8 -3 12 -2 9 4 -6 10 -25 14 -25 6z"/>
<path d="M3763 3276 c20 -27 -8 -31 -39 -6 -17 14 -18 14 -5 -2 7 -10 10 -18
5 -19 -5 0 -20 -2 -34 -5 -19 -3 -21 -2 -10 6 9 6 10 10 3 10 -6 0 -15 -4 -18
-10 -3 -5 -15 -10 -26 -10 -12 0 -17 4 -13 11 5 8 1 8 -14 0 -27 -14 -32 -14
-28 2 1 6 1 9 -1 5 -3 -5 -11 -8 -19 -8 -9 0 -12 -5 -8 -12 6 -10 4 -10 -7 0
-14 13 -33 17 -25 4 2 -4 -4 -9 -15 -9 -11 -1 -17 2 -14 7 6 10 -21 7 -31 -3
-10 -10 -26 -9 -20 1 2 4 -5 9 -17 9 -17 2 -19 0 -7 -7 12 -8 11 -10 -7 -10
-12 0 -24 6 -26 13 -4 10 -6 10 -6 0 -1 -7 -9 -13 -18 -13 -15 0 -16 2 -3 10
9 6 10 10 3 10 -6 0 -15 -4 -18 -10 -3 -5 -11 -10 -16 -10 -6 0 -8 4 -5 8 2 4
-4 8 -14 8 -10 0 -16 -4 -14 -8 3 -4 -2 -8 -10 -8 -9 0 -16 5 -16 10 0 6 -5
10 -11 10 -5 0 -7 -6 -3 -12 6 -10 4 -10 -8 0 -13 10 -17 10 -21 0 -4 -10 -8
-10 -15 1 -9 12 -13 12 -26 2 -12 -11 -16 -11 -16 -1 0 10 -3 10 -15 0 -8 -6
-18 -9 -24 -6 -5 3 -12 -1 -15 -10 -4 -9 -13 -14 -22 -10 -8 3 -12 2 -9 -4 3
-6 -1 -13 -9 -16 -9 -3 -16 -13 -16 -21 0 -8 -4 -12 -9 -9 -11 7 -23 -36 -13
-44 13 -9 7 -35 -7 -32 -7 1 -10 -2 -6 -8 3 -6 11 -7 17 -4 6 4 8 1 6 -7 -3
-8 -10 -13 -16 -12 -5 1 -8 -7 -4 -19 3 -14 1 -19 -6 -14 -8 5 -12 -3 -12 -23
0 -17 5 -31 11 -31 6 0 9 -7 6 -15 -4 -8 -1 -17 5 -21 7 -4 8 -3 4 4 -4 7 -1
12 8 12 8 0 18 -5 21 -11 4 -6 13 -8 21 -5 8 3 17 -1 21 -9 5 -14 7 -13 18 1
9 14 14 14 20 4 6 -9 4 -11 -5 -5 -9 5 -11 4 -6 -3 5 -8 13 -9 24 -3 11 6 24
6 35 0 9 -6 17 -7 17 -3 0 4 10 -1 22 -12 16 -13 19 -14 10 -3 -11 15 -9 17
13 15 14 0 25 -2 25 -3 0 -8 -50 -53 -59 -53 -7 0 -9 -4 -6 -10 6 -9 -8 -14
-28 -11 -5 1 -6 -2 -3 -7 3 -4 -9 -19 -25 -33 -17 -13 -46 -39 -65 -57 -19
-18 -39 -30 -44 -27 -6 4 -10 3 -9 -2 4 -23 -3 -31 -26 -28 -19 2 -23 -1 -15
-10 8 -9 8 -15 0 -20 -5 -3 -10 -3 -10 1 0 4 -6 0 -13 -11 -8 -10 -19 -15 -26
-11 -6 4 -11 4 -10 -1 4 -23 -2 -32 -18 -26 -11 4 -14 3 -9 -5 4 -7 2 -12 -4
-12 -6 0 -23 -11 -37 -24 -15 -14 -30 -23 -34 -20 -4 2 -11 -1 -15 -7 -5 -8
-2 -10 7 -5 8 4 7 2 -2 -6 -9 -7 -18 -17 -20 -23 -2 -5 -10 -9 -16 -9 -7 1
-10 -3 -6 -9 4 -6 0 -8 -10 -4 -9 3 -19 2 -23 -4 -4 -6 -11 -6 -20 2 -12 10
-13 9 -8 -5 4 -9 2 -16 -3 -14 -5 2 -28 -16 -50 -39 -22 -23 -44 -39 -49 -35
-5 4 -3 0 4 -9 6 -9 9 -19 5 -22 -3 -4 -1 -7 5 -7 7 0 12 -7 12 -16 0 -9 -5
-12 -12 -8 -9 5 -9 2 1 -9 9 -12 10 -17 2 -17 -7 0 -9 -4 -6 -10 3 -5 1 -10
-6 -10 -7 0 -9 -3 -6 -6 3 -4 2 -16 -4 -27 -7 -11 -7 -17 -1 -13 5 3 12 -3 15
-14 3 -11 13 -23 24 -26 56 -19 72 -29 60 -37 -13 -9 -1 -7 37 9 16 6 18 4 13
-11 -6 -13 -4 -15 5 -8 11 8 33 10 41 3 8 -6 49 -5 53 2 3 4 10 8 16 8 6 0 5
-7 -3 -17 -13 -17 -13 -17 7 -1 16 14 23 15 33 5 7 -6 12 -7 11 -2 -5 22 1 25
21 14 12 -6 19 -7 15 -1 -8 14 18 22 35 12 8 -6 16 -4 21 3 4 7 8 7 8 2 0 -11
46 -13 56 -2 4 3 16 2 27 -4 15 -8 18 -8 12 1 -5 8 -3 11 6 8 8 -3 22 -1 33 4
11 6 16 6 13 1 -4 -5 0 -10 8 -10 8 0 11 5 8 10 -4 6 3 8 15 5 12 -4 22 -2 22
2 0 5 9 7 20 5 11 -2 20 1 20 7 0 6 7 5 17 -3 11 -10 14 -10 9 -1 -4 6 -2 12
3 12 20 0 26 2 38 11 7 7 13 5 16 -3 4 -10 6 -10 6 0 1 6 9 12 19 12 10 0 24
6 31 13 11 9 12 9 7 0 -5 -9 -2 -11 8 -7 9 3 13 11 9 18 -4 6 2 4 12 -4 11 -8
16 -10 11 -3 -5 9 1 12 23 9 17 -2 28 1 25 5 -3 5 2 9 11 9 10 0 14 -5 10 -12
-4 -7 1 -4 9 6 9 11 16 15 16 9 0 -6 14 -7 38 -3 21 3 36 11 35 18 -3 11 10
16 30 13 5 -1 6 3 3 8 -8 12 20 34 33 27 5 -4 13 -1 17 5 4 8 3 9 -4 5 -21
-12 -13 12 8 27 11 8 17 17 13 20 -3 4 4 7 16 7 12 0 19 4 16 10 -3 6 3 10 14
10 10 0 22 -6 24 -12 3 -8 6 -5 6 5 1 10 6 15 11 12 6 -3 10 -1 10 5 0 6 4 9
9 5 5 -3 13 0 17 6 4 7 3 9 -4 5 -6 -3 -13 3 -17 14 -3 11 -13 20 -21 20 -8 0
-14 8 -14 18 0 14 -2 15 -10 2 -6 -10 -10 -11 -10 -3 0 8 -11 11 -30 9 -22 -2
-30 1 -30 13 0 9 -3 12 -8 6 -10 -14 -52 -15 -52 -2 0 8 -3 8 -11 0 -6 -6 -23
-8 -44 -3 -21 5 -38 3 -44 -3 -8 -8 -11 -8 -11 1 0 14 -21 12 -33 -3 -6 -6
-10 -5 -14 3 -4 10 -8 10 -21 0 -12 -10 -14 -10 -8 0 4 6 2 12 -3 12 -6 0 -11
-5 -11 -11 0 -8 -4 -8 -14 0 -11 9 -16 9 -21 0 -6 -8 -10 -7 -16 2 -6 10 -9
11 -9 2 0 -7 -10 -12 -23 -11 -13 1 -24 8 -24 15 0 9 4 10 13 2 9 -8 11 -5 7
12 -4 14 -2 20 5 15 5 -3 24 8 41 25 17 16 35 27 41 24 6 -4 10 -3 9 2 -3 20
2 27 11 13 8 -13 10 -13 10 1 0 9 8 23 17 30 15 12 16 12 8 -1 -4 -8 5 0 22
18 16 17 33 32 37 32 4 0 14 7 23 15 8 8 19 12 25 9 6 -4 8 -2 4 4 -7 12 59
56 73 48 5 -3 8 2 7 12 -1 11 6 17 20 16 12 0 21 5 20 10 -1 6 3 12 7 13 5 1
17 11 26 22 19 22 37 29 25 9 -4 -7 -3 -8 4 -4 6 4 9 13 6 20 -3 8 0 17 7 22
7 4 10 3 6 -3 -3 -5 0 -10 8 -10 8 0 12 4 9 9 -3 4 4 18 16 30 19 21 21 21 14
3 -9 -25 -1 -18 16 14 10 19 10 22 -2 16 -7 -4 -2 3 12 15 14 12 18 18 10 14
-12 -5 -12 -4 -3 6 6 7 9 19 6 28 -4 9 -2 13 4 9 7 -5 9 1 5 15 -4 18 -2 20
14 15 18 -7 18 -6 -1 9 -14 11 -16 18 -7 21 6 3 12 9 12 14 0 6 -3 8 -7 6 -14
-8 -53 12 -53 26 0 7 11 20 25 27 13 7 22 17 19 22 -3 4 -1 8 4 8 5 0 9 6 9
14 0 8 -6 12 -15 8 -9 -3 -13 -1 -10 4 12 19 -14 30 -84 37 -9 1 -14 5 -12 9
3 4 0 8 -5 8 -6 0 -11 -5 -11 -11 0 -6 -8 -3 -17 8 -10 10 -15 14 -10 9z"/>
<path d="M3821 3277 c2 -1 11 -8 21 -15 12 -10 18 -10 24 -1 4 7 3 9 -4 5 -6
-3 -13 -2 -17 4 -3 5 -11 10 -17 10 -6 0 -9 -1 -7 -3z"/>
<path d="M1433 3235 c0 -8 4 -12 9 -9 5 3 6 10 3 15 -9 13 -12 11 -12 -6z"/>
<path d="M1210 3225 c-7 -8 -16 -13 -20 -10 -5 3 -11 -1 -13 -7 -4 -10 -6 -10
-6 0 -1 8 -6 10 -13 6 -18 -12 -82 -11 -90 1 -5 6 -8 5 -8 -2 0 -7 -4 -13 -10
-13 -5 0 -7 8 -4 18 5 16 5 16 -9 0 -11 -14 -16 -15 -27 -5 -9 8 -11 8 -6 0 8
-15 -71 -8 -90 8 -10 8 -15 8 -19 -3 -4 -11 -18 -13 -60 -8 -34 4 -55 2 -55
-4 0 -5 -7 -1 -15 10 -15 18 -15 18 -8 0 4 -13 3 -17 -4 -13 -6 4 -18 1 -26
-7 -8 -8 -17 -12 -21 -9 -3 4 -6 -1 -6 -10 0 -10 -6 -16 -12 -15 -7 2 -12 -3
-10 -11 2 -8 -3 -11 -11 -8 -8 3 -14 -3 -14 -16 -1 -11 -8 -24 -15 -28 -8 -6
-9 -9 -2 -9 17 0 27 -50 13 -66 -6 -8 -9 -14 -5 -14 4 0 0 -11 -9 -24 -17 -26
-11 -56 12 -56 8 0 11 -4 8 -10 -6 -9 16 -15 39 -11 5 1 6 -4 3 -11 -3 -10 18
-13 99 -12 73 1 102 -2 98 -10 -3 -6 1 -3 9 6 13 16 15 16 32 0 15 -15 17 -15
12 -1 -4 14 1 15 34 9 21 -4 40 -4 41 1 2 4 15 10 31 13 16 3 25 1 22 -5 -4
-5 -1 -9 4 -9 6 0 11 8 11 17 0 13 3 14 12 5 7 -7 17 -12 22 -12 6 0 6 4 -1 8
-9 6 -6 11 8 21 15 8 19 9 14 1 -5 -9 -1 -10 16 -5 13 4 26 12 27 16 2 5 8 9
13 9 6 0 8 -4 5 -8 -3 -5 2 -9 10 -9 8 0 13 6 10 12 -3 9 6 11 31 8 28 -4 34
-2 27 9 -6 10 -5 11 7 2 19 -15 48 -14 42 2 -2 6 1 15 8 20 8 5 10 3 5 -7 -4
-8 1 -4 12 8 11 12 23 19 26 15 4 -3 4 1 0 11 -7 19 11 24 20 5 4 -7 4 -3 2
10 -3 14 1 22 11 22 8 0 11 5 8 10 -6 9 8 14 28 11 5 -1 6 3 2 9 -3 6 -12 7
-18 3 -7 -4 -6 0 2 10 7 9 10 17 6 17 -4 0 -2 6 5 14 6 8 19 12 27 9 10 -4 14
-2 10 4 -4 6 -1 14 5 17 10 5 10 7 1 12 -7 3 -13 13 -13 21 0 13 2 14 18 2 15
-13 16 -12 3 4 -8 9 -16 15 -19 12 -3 -3 -12 1 -20 8 -13 10 -14 9 -8 -1 7
-11 4 -12 -13 -3 -11 7 -21 9 -21 5 0 -4 -9 1 -20 11 -17 16 -20 16 -15 3 7
-18 -9 -19 -34 -4 -9 6 -12 5 -8 0 3 -6 -5 -10 -18 -10 -12 0 -22 5 -21 11 2
5 1 7 -1 2 -3 -4 -9 -5 -14 -2 -5 4 -6 0 -3 -8 3 -8 -1 -14 -10 -14 -8 0 -13
4 -11 8 3 4 -2 9 -10 12 -9 4 -12 1 -9 -8 6 -15 -20 -15 -33 0 -4 4 -3 5 3 2
6 -3 11 0 11 8 0 19 -2 19 -17 0z"/>
<path d="M2910 3219 c0 -5 5 -7 10 -4 6 3 10 8 10 11 0 2 -4 4 -10 4 -5 0 -10
-5 -10 -11z"/>
<path d="M1519 3173 c-13 -16 -12 -17 4 -4 9 7 17 15 17 17 0 8 -8 3 -21 -13z"/>
<path d="M2504 3162 c3 -5 0 -12 -6 -15 -7 -2 -10 -7 -7 -11 3 -4 12 0 18 8 9
11 9 16 0 22 -7 4 -9 3 -5 -4z"/>
<path d="M1455 3121 c-6 -11 13 -26 22 -17 4 3 1 6 -6 6 -7 0 -9 5 -6 10 3 6
4 10 1 10 -3 0 -7 -4 -11 -9z"/>
<path d="M3959 3093 c-13 -16 -12 -17 4 -4 16 13 21 21 13 21 -2 0 -10 -8 -17
-17z"/>
<path d="M1550 3081 c0 -6 4 -13 10 -16 6 -3 7 1 4 9 -7 18 -14 21 -14 7z"/>
<path d="M1486 3038 c3 -5 10 -6 15 -3 13 9 11 12 -6 12 -8 0 -12 -4 -9 -9z"/>
<path d="M2439 3013 c-13 -16 -12 -17 4 -4 9 7 17 15 17 17 0 8 -8 3 -21 -13z"/>
<path d="M1433 3005 c0 -8 4 -12 9 -9 5 3 6 10 3 15 -9 13 -12 11 -12 -6z"/>
<path d="M1455 2981 c-3 -5 -2 -12 3 -15 5 -3 9 1 9 9 0 17 -3 19 -12 6z"/>
<path d="M1339 2928 c-5 -18 -6 -38 -1 -34 7 8 12 36 6 36 -2 0 -4 -1 -5 -2z"/>
<path d="M1415 2921 c-3 -5 -2 -12 3 -15 5 -3 9 1 9 9 0 17 -3 19 -12 6z"/>
<path d="M591 2850 c-12 -11 -27 -17 -32 -14 -5 3 -9 0 -9 -5 0 -6 -7 -11 -16
-11 -9 0 -12 -5 -8 -12 5 -7 2 -9 -9 -5 -12 4 -14 2 -10 -11 3 -9 3 -14 -2
-10 -11 10 -36 -18 -36 -39 1 -40 5 -53 14 -53 5 0 4 -6 -2 -14 -8 -10 -9 -16
-1 -21 6 -3 8 -11 4 -16 -3 -5 -9 -7 -13 -5 -4 3 -8 -1 -8 -9 0 -8 4 -15 8
-15 4 0 6 -8 5 -17 -4 -24 74 -95 89 -83 6 5 24 8 40 6 17 -1 36 2 44 8 12 9
13 8 6 -4 -6 -12 -5 -13 5 -3 11 10 17 10 29 0 11 -9 13 -9 8 0 -4 6 -3 14 3
18 5 3 10 2 10 -4 0 -5 9 -8 20 -6 11 2 22 -1 26 -6 3 -6 11 -6 17 -1 7 4 19
8 27 7 8 0 18 4 22 10 5 6 8 5 8 -3 0 -10 5 -10 20 -2 11 6 20 8 20 4 0 -3 6
-1 14 5 11 9 15 9 19 -1 3 -8 6 -6 6 5 1 10 7 17 14 15 6 -1 23 4 36 11 19 11
22 11 15 -1 -6 -10 -5 -11 8 -1 8 7 18 10 21 6 4 -3 7 -2 7 4 0 16 36 22 51 9
9 -8 10 -8 5 2 -4 7 -1 12 8 12 9 0 16 -6 16 -12 0 -9 3 -9 9 1 5 8 18 16 27
17 10 2 24 10 31 19 7 11 17 14 25 9 10 -6 11 -5 1 8 -11 12 -10 18 5 32 10 9
22 13 27 9 4 -5 5 -2 1 4 -4 7 -2 21 3 30 6 10 11 14 11 8 0 -5 9 5 20 23 11
17 24 32 29 32 5 0 8 13 7 29 0 18 -5 27 -13 24 -6 -2 -21 0 -32 6 -14 8 -22
8 -27 0 -5 -9 -11 -6 -21 6 -13 18 -13 18 -14 -1 0 -11 -3 -14 -6 -6 -4 9 -8
10 -18 2 -10 -8 -15 -8 -21 1 -5 8 -3 10 7 4 8 -5 10 -4 6 0 -11 12 -38 15
-31 4 6 -11 -25 -7 -45 5 -9 6 -12 5 -7 -2 4 -8 -6 -10 -35 -8 -22 2 -45 9
-50 17 -7 11 -9 11 -9 -3 0 -19 -15 -24 -24 -10 -4 7 -38 8 -56 2 -6 -2 -71
-2 -173 0 -48 1 -65 5 -61 13 5 8 2 7 -7 0 -16 -15 -43 -17 -34 -3 9 14 3 12
-24 -10z"/>
<path d="M1131 2493 c-8 -14 -12 -15 -25 -4 -9 7 -16 9 -16 4 0 -5 -20 -9 -45
-8 -25 1 -48 -2 -51 -7 -3 -4 -13 -4 -23 2 -12 6 -22 5 -31 -3 -10 -10 -11 -9
-5 3 8 13 7 13 -8 1 -13 -10 -17 -10 -17 -1 0 9 -3 10 -13 1 -10 -7 -17 -7
-24 0 -8 8 -13 8 -17 0 -4 -6 -12 -11 -17 -11 -6 0 -7 5 -3 12 4 7 3 8 -5 4
-6 -4 -20 -2 -29 6 -15 12 -16 11 -3 -5 13 -16 12 -18 -12 -13 -17 3 -27 0
-28 -7 0 -7 -4 -3 -9 8 l-9 20 0 -20 c-1 -17 -3 -17 -11 -5 -6 9 -10 10 -10 3
0 -8 -9 -9 -30 -3 -19 6 -28 5 -24 -1 6 -10 -37 -6 -56 6 -6 4 -7 -1 -3 -12 6
-15 4 -16 -9 -5 -12 9 -18 10 -23 2 -5 -8 -11 -8 -21 1 -11 9 -14 8 -14 -2 0
-9 -3 -10 -8 -4 -11 15 -32 17 -32 3 0 -9 -4 -8 -10 2 -6 10 -10 11 -10 2 0
-14 -21 -12 -32 3 -5 6 -8 5 -8 -4 0 -11 -3 -11 -17 0 -14 12 -16 12 -8 0 6
-11 4 -13 -8 -8 -10 3 -17 2 -17 -3 0 -5 -6 -7 -14 -4 -8 3 -29 -11 -49 -31
-22 -23 -41 -34 -48 -29 -7 4 -9 3 -5 -4 3 -6 -1 -18 -11 -27 -14 -14 -14 -18
-2 -26 8 -5 10 -9 4 -9 -5 0 -4 -5 2 -11 12 -12 6 -39 -11 -51 -7 -5 -6 -8 4
-8 12 -1 12 -2 -2 -10 -13 -8 -15 -17 -8 -39 4 -16 6 -32 2 -35 -3 -3 -1 -6 4
-6 6 0 19 -7 30 -16 10 -8 12 -13 4 -9 -8 4 -6 -1 4 -9 14 -11 23 -13 32 -5 9
7 15 5 23 -8 6 -11 11 -13 11 -5 0 8 6 12 13 9 6 -2 22 0 35 4 17 7 22 5 22
-9 1 -16 1 -16 11 1 6 10 15 14 22 10 17 -11 30 -11 45 0 8 6 12 5 12 -4 1
-10 4 -8 11 4 5 9 15 17 20 17 6 0 7 -4 4 -10 -3 -6 1 -7 10 -4 8 4 23 0 32
-7 13 -11 15 -11 9 -1 -6 11 2 13 38 9 25 -2 46 -1 46 3 0 4 14 6 30 5 17 -1
30 1 30 6 0 5 11 7 25 5 16 -3 23 -1 19 5 -3 6 2 10 12 8 11 -1 27 1 36 6 10
4 29 8 43 9 14 0 25 5 25 9 0 5 5 5 10 2 6 -3 10 -2 10 2 0 5 12 8 28 8 15 -1
33 3 39 8 7 5 22 7 33 4 13 -3 18 -1 13 6 -4 6 0 8 10 4 10 -3 17 -2 17 3 0
12 22 9 32 -5 5 -7 8 -6 8 0 0 6 11 12 26 13 17 1 23 -2 19 -11 -4 -6 0 -4 8
5 8 10 17 15 20 11 4 -3 13 -1 20 5 8 7 18 8 22 4 5 -4 5 -1 1 6 -8 13 11 45
23 38 9 -6 80 71 73 79 -4 3 2 3 12 -1 13 -5 17 -4 12 4 -3 6 -2 13 4 17 5 3
10 2 10 -4 0 -6 12 -4 27 4 15 8 30 12 35 9 4 -3 4 6 -1 19 -6 14 -7 28 -4 31
4 3 -1 6 -10 6 -10 0 -17 4 -17 8 0 4 -10 8 -22 9 -11 1 -24 6 -27 10 -3 4
-26 8 -51 8 -25 0 -48 5 -52 10 -5 6 -8 6 -8 -1 0 -6 -10 -10 -22 -9 -14 2
-22 8 -20 16 3 11 1 12 -9 2 -15 -15 -43 -17 -34 -3 3 6 4 10 1 10 -3 0 -9 -8
-15 -17z"/>
</g>
</svg>
